<svg width="20" height="20" viewBox="0 0 20 20" fill="none" xmlns="http://www.w3.org/2000/svg">
<path d="M6.17406 16.1629L2.03177 10.6438C1.80857 10.3464 1.50584 10.1793 1.19019 10.1793C0.874528 10.1793 0.5718 10.3464 0.348597 10.6438C0.125394 10.9412 0 11.3445 0 11.7651C0 11.9733 0.0307853 12.1795 0.0905977 12.3719C0.15041 12.5643 0.238078 12.7392 0.348597 12.8864L5.33844 19.5348C5.804 20.1551 6.55606 20.1551 7.02161 19.5348L19.6514 2.70709C19.8746 2.4097 20 2.00635 20 1.58578C20 1.1652 19.8746 0.761856 19.6514 0.464464C19.4282 0.167073 19.1255 0 18.8098 0C18.4942 0 18.1914 0.167073 17.9682 0.464464L6.17406 16.1629Z" fill="#37BD3D"/>
</svg>
